<?xml version="1.0" standalone="no"?>
<!DOCTYPE svg PUBLIC "-//W3C//DTD SVG 20010904//EN"
 "http://www.w3.org/TR/2001/REC-SVG-20010904/DTD/svg10.dtd">
<svg version="1.0" xmlns="http://www.w3.org/2000/svg"
 width="500.000000pt" height="500.000000pt" viewBox="0 0 500.000000 500.000000"
 preserveAspectRatio="xMidYMid meet">

<g transform="translate(0.000000,500.000000) scale(0.100000,-0.100000)"
fill="#000000" stroke="none">
<path d="M3160 3306 c-75 -21 -120 -47 -179 -102 -162 -150 -175 -372 -33
-550 51 -65 159 -136 367 -245 225 -117 295 -190 295 -304 -1 -79 -74 -163
-164 -190 -184 -55 -395 58 -494 265 -22 47 -46 109 -53 138 -10 39 -17 52
-31 52 -17 0 -18 -16 -18 -270 0 -304 0 -303 69 -230 49 52 72 52 221 0 103
-36 125 -40 210 -40 158 0 262 38 367 133 36 34 65 73 90 125 36 73 38 80 38
176 0 89 -3 108 -27 159 -60 128 -138 191 -409 333 -101 53 -205 112 -232 131
-62 46 -97 105 -97 167 0 57 17 93 64 134 48 42 98 55 187 50 100 -5 173 -40
250 -118 64 -66 98 -124 124 -213 13 -44 21 -57 36 -57 18 0 19 8 19 113 0
185 -12 357 -24 357 -6 0 -20 -19 -31 -42 -19 -42 -22 -43 -65 -42 -29 0 -78
15 -135 39 -83 36 -98 39 -195 42 -64 1 -123 -3 -150 -11z"/>
<path d="M1100 3270 c0 -17 7 -20 53 -20 60 0 116 -25 134 -61 10 -18 13 -165
13 -612 0 -653 2 -635 -65 -663 -19 -8 -57 -14 -85 -14 -43 0 -50 -3 -50 -20
0 -20 7 -20 635 -20 l635 0 4 23 c3 12 14 117 26 232 11 116 23 218 25 228 2
12 -3 17 -20 17 -19 0 -26 -11 -45 -67 -58 -175 -122 -263 -228 -315 -65 -32
-70 -33 -221 -37 -179 -4 -223 5 -246 49 -21 41 -23 1142 -1 1194 18 42 68 66
139 66 46 0 55 3 60 20 5 20 0 20 -379 20 -377 0 -384 0 -384 -20z"/>
</g>
</svg>
